# xmcd CD database file
#
# Track frame offsets:
#	150
#	27141
#	50525
#	78571
#	101667
#	132021
#	158015
#	177395
#	202160
#	229661
#	255009
#	285424
#	301806
#
# Disc length: 4400 seconds
#
# Revision: 1
# Processed by: cddbd v1.5.2PL0 Copyright (c) Steve Scherf et al.
# Submitted via: CDex 1.51
#
DISCID=9f112e0d
DTITLE=Äl Jawala - Lost In Manele
DYEAR=2007
DGENRE=Jazz
TTITLE0=Crazy
TTITLE1=Lost In Manele
TTITLE2=Microbuzele
TTITLE3=Step Into Jungle
TTITLE4=Nortwint
TTITLE5=Pellegramm
TTITLE6=Romski Cocek
TTITLE7=Ezmar
TTITLE8=Stufstock
TTITLE9=Ora Son
TTITLE10=So Far
TTITLE11=Fönky I
TTITLE12=Fönky II
EXTD=YEAR: 2007
EXTT0=
EXTT1=
EXTT2=
EXTT3=
EXTT4=
EXTT5=
EXTT6=
EXTT7=
EXTT8=
EXTT9=
EXTT10=
EXTT11=
EXTT12=
PLAYORDER=
